<svg width="311" height="138" fill="none" xmlns="http://www.w3.org/2000/svg"><rect y="48" width="311" height="16" rx="8" fill="#949494"/><rect y="48" width="237" height="16" rx="8" fill="#237EA3"/><path d="M1.166 86v-8.566h1.078v7.605h3.744V86H1.166zm11.736-3.228c0 1.05-.265 1.87-.796 2.46-.532.59-1.266.885-2.204.885-.582 0-1.097-.135-1.547-.404a2.687 2.687 0 01-1.037-1.172c-.242-.508-.363-1.098-.363-1.77 0-1.046.262-1.86.785-2.443.524-.586 1.258-.879 2.203-.879.907 0 1.625.299 2.157.897.535.593.802 1.402.802 2.425zm-4.857 0c0 .808.158 1.423.475 1.845.32.418.79.627 1.412.627.613 0 1.08-.209 1.4-.627.32-.422.48-1.037.48-1.846 0-.808-.162-1.415-.486-1.822-.32-.41-.79-.615-1.412-.615-1.246 0-1.87.813-1.87 2.438zM19.717 86l-1.102-3.621c-.101-.3-.25-.87-.445-1.705h-.047c-.164.761-.309 1.334-.434 1.717L16.535 86H15.34l-1.764-6.434h1.09l.926 3.61c.215.824.342 1.406.38 1.746h.048l.082-.363a14.86 14.86 0 01.351-1.366l1.143-3.627h1.148l1.108 3.627.123.44c.046.152.09.305.128.457.04.148.075.295.106.44.031.14.055.267.07.38h.053c.035-.297.178-.933.428-1.91l.902-3.434h1.078L20.953 86h-1.236zm6.914.117c-.965 0-1.723-.29-2.274-.873-.546-.586-.82-1.39-.82-2.414 0-1.031.256-1.852.768-2.46.511-.614 1.203-.92 2.074-.92.808 0 1.453.26 1.933.784.481.52.721 1.225.721 2.116v.638h-4.406c.02.73.205 1.285.557 1.664.351.38.85.569 1.494.569.343 0 .67-.03.978-.088a5.79 5.79 0 001.084-.358v.926c-.355.153-.69.26-1.002.322a5.715 5.715 0 01-1.107.094zm-.264-5.806c-.504 0-.902.162-1.195.486-.293.324-.467.775-.522 1.353h3.276c-.008-.601-.147-1.058-.416-1.37-.27-.313-.65-.47-1.143-.47zm8.49 3.914c0 .601-.224 1.068-.673 1.4-.45.328-1.08.492-1.893.492-.848 0-1.521-.135-2.021-.404v-.961c.707.344 1.388.516 2.045.516.53 0 .917-.086 1.16-.258a.807.807 0 00.363-.692c0-.254-.117-.468-.352-.644-.23-.176-.642-.377-1.236-.604-.605-.234-1.031-.433-1.277-.597a1.725 1.725 0 01-.545-.563 1.556 1.556 0 01-.17-.756c0-.527.215-.943.644-1.248.43-.304 1.02-.457 1.77-.457.73 0 1.414.145 2.05.434l-.357.838c-.652-.274-1.24-.41-1.763-.41-.438 0-.77.07-.996.21-.227.137-.34.327-.34.569 0 .234.097.43.293.586.195.152.65.365 1.365.638.535.2.93.385 1.183.557.258.172.448.365.569.58.12.215.181.473.181.774zm3.715 1.03c.137 0 .297-.013.48-.04.184-.028.323-.059.417-.094v.809c-.098.043-.25.084-.457.123a2.99 2.99 0 01-.621.064c-1.258 0-1.887-.662-1.887-1.986v-3.744h-.908v-.504l.92-.422.422-1.371h.627v1.476h1.857v.82h-1.857v3.716c0 .37.087.656.263.855.18.2.428.299.744.299zM6.398 101.323c0 .621-.224 1.121-.673 1.5-.45.375-1.079.6-1.887.674v1.201h-.803v-1.177c-.953-.02-1.789-.188-2.508-.504v-1.547c.34.168.748.316 1.225.445.48.129.908.205 1.283.229v-1.817l-.392-.152c-.774-.305-1.323-.635-1.647-.99-.32-.36-.48-.803-.48-1.33 0-.567.22-1.032.662-1.395.445-.367 1.064-.59 1.857-.668v-.897h.803v.874c.894.039 1.703.218 2.426.539l-.551 1.37a6.334 6.334 0 00-1.875-.456v1.728c.762.293 1.303.547 1.623.762.324.215.56.451.709.709.152.258.228.559.228.902zm-1.763.088a.527.527 0 00-.2-.416 2.621 2.621 0 00-.597-.351v1.459c.531-.09.797-.321.797-.692zm-2.356-3.556a.57.57 0 00.176.427c.121.11.315.223.58.34v-1.377c-.504.074-.756.278-.756.61zM14.871 104h-2.074l-1.992-3.24L8.813 104H6.867l2.842-4.418-2.66-4.148h2.004l1.845 3.082 1.811-3.082h1.957l-2.69 4.248L14.872 104zM275.064 86h-1.078v-3.996h-4.394V86h-1.078v-8.566h1.078v3.62h4.394v-3.62h1.078V86zm3.252 0h-1.054v-6.434h1.054V86zm-1.136-8.174c0-.234.058-.404.175-.51a.657.657 0 01.446-.158c.164 0 .306.053.428.158.125.106.187.276.187.51 0 .23-.062.4-.187.51a.62.62 0 01-.428.164.643.643 0 01-.446-.164c-.117-.11-.175-.28-.175-.51zm5.625 7.43c.648 0 1.119-.174 1.412-.522.297-.351.445-.914.445-1.687v-.252c0-.86-.148-1.484-.445-1.875-.297-.39-.776-.586-1.436-.586-.539 0-.957.215-1.254.644-.293.426-.439 1.036-.439 1.829 0 .796.142 1.404.428 1.822.289.418.718.627 1.289.627zm1.845.685l.036-.79h-.047c-.434.644-1.098.966-1.993.966-.832 0-1.482-.289-1.951-.867-.465-.582-.697-1.4-.697-2.455 0-1.035.234-1.852.703-2.45.473-.597 1.117-.896 1.934-.896.871 0 1.543.324 2.015.973h.065l.14-.856h.838v6.54c0 .921-.234 1.615-.703 2.08-.465.464-1.189.697-2.174.697-.937 0-1.709-.137-2.314-.41V87.5c.625.336 1.416.504 2.373.504.547 0 .979-.16 1.295-.48.32-.32.48-.764.48-1.33v-.253zm7.471.059v-4.113c0-.524-.117-.912-.351-1.166-.231-.258-.594-.387-1.09-.387-.653 0-1.131.182-1.436.545-.301.363-.451.963-.451 1.799V86h-1.055v-9.117h1.055v2.672c0 .351-.02.652-.059.902h.071c.191-.313.463-.557.814-.732a2.625 2.625 0 011.19-.264c.781 0 1.369.187 1.763.562.395.371.592.967.592 1.788V86h-1.043zm5.772.117c-.965 0-1.723-.29-2.274-.873-.547-.586-.82-1.39-.82-2.414 0-1.031.256-1.852.767-2.46.512-.614 1.204-.92 2.075-.92.808 0 1.453.26 1.933.784.481.52.721 1.225.721 2.116v.638h-4.406c.019.73.205 1.285.556 1.664.352.38.85.569 1.494.569.344 0 .67-.03.979-.088a5.78 5.78 0 001.084-.358v.926c-.356.153-.69.26-1.002.322a5.712 5.712 0 01-1.107.094zm-.264-5.806c-.504 0-.902.162-1.195.486-.293.324-.467.775-.522 1.353h3.276c-.008-.601-.147-1.058-.417-1.37-.269-.313-.65-.47-1.142-.47zm8.49 3.914c0 .601-.224 1.068-.674 1.4-.449.328-1.08.492-1.892.492-.848 0-1.522-.135-2.022-.404v-.961c.707.344 1.389.516 2.045.516.531 0 .918-.086 1.16-.258a.805.805 0 00.364-.692c0-.254-.118-.468-.352-.644-.23-.176-.643-.377-1.236-.604-.606-.234-1.032-.433-1.278-.597a1.734 1.734 0 01-.545-.563 1.559 1.559 0 01-.169-.756c0-.527.214-.943.644-1.248.43-.304 1.02-.457 1.77-.457.73 0 1.414.145 2.05.434l-.357.838c-.652-.274-1.24-.41-1.764-.41-.437 0-.769.07-.996.21-.226.137-.34.327-.34.569 0 .234.098.43.293.586.196.152.651.365 1.366.638.535.2.929.385 1.183.557.258.172.447.365.569.58.121.215.181.473.181.774zm3.715 1.03c.137 0 .297-.013.48-.04a2.15 2.15 0 00.416-.094v.809c-.097.043-.25.084-.457.123-.203.043-.41.064-.621.064-1.257 0-1.886-.662-1.886-1.986v-3.744h-.909v-.504l.92-.422.422-1.371h.627v1.476h1.858v.82h-1.858v3.716c0 .37.088.656.264.855.18.2.428.299.744.299zm-23.314 16.067c0 .621-.225 1.121-.674 1.5-.45.375-1.078.6-1.887.674v1.201h-.803v-1.177c-.953-.02-1.789-.188-2.508-.504v-1.547c.34.168.748.316 1.225.445.481.129.908.205 1.283.229v-1.817l-.392-.152c-.774-.305-1.323-.635-1.647-.99-.32-.36-.48-.803-.48-1.33 0-.567.22-1.032.662-1.395.445-.367 1.064-.59 1.857-.668v-.897h.803v.874c.895.039 1.703.218 2.426.539l-.551 1.37a6.328 6.328 0 00-1.875-.456v1.728c.762.293 1.303.547 1.623.762.324.215.561.451.709.709.152.258.229.559.229.902zm-1.764.088a.529.529 0 00-.199-.416 2.62 2.62 0 00-.598-.351v1.459c.531-.09.797-.321.797-.692zm-2.356-3.556a.57.57 0 00.176.427c.121.11.315.223.58.34v-1.377c-.504.074-.756.278-.756.61zM294.992 104h-2.074l-1.992-3.24-1.992 3.24h-1.946l2.842-4.418-2.66-4.148h2.004l1.846 3.082 1.81-3.082h1.957l-2.689 4.248 2.894 4.318zm8.004 0h-2.074l-1.992-3.24-1.992 3.24h-1.946l2.842-4.418-2.66-4.148h2.004l1.845 3.082 1.811-3.082h1.957l-2.689 4.248 2.894 4.318zm8.004 0h-2.074l-1.992-3.24-1.993 3.24h-1.945l2.842-4.418-2.66-4.148h2.004l1.845 3.082 1.811-3.082h1.957l-2.69 4.248L311 104z" fill="#424242"/><mask id="a" fill="#fff"><path fill-rule="evenodd" clip-rule="evenodd" d="M150.135 78.998l4.446-4.414a2.017 2.017 0 012.838 0l4.446 4.414H206a8 8 0 018 8v43a8 8 0 01-8 8H106a8 8 0 01-8-8v-43a8 8 0 018-8h44.135z"/></mask><path d="M150.135 78.998v1h.412l.293-.29-.705-.71zm4.446-4.414l-.705-.71.705.71zm2.838 0l.705-.71-.705.71zm4.446 4.414l-.705.71.293.29h.412v-1zm-11.025.71l4.445-4.415-1.409-1.419-4.445 4.415 1.409 1.419zm4.445-4.415a1.018 1.018 0 011.43 0l1.409-1.419a3.018 3.018 0 00-4.248 0l1.409 1.42zm1.43 0l4.445 4.415 1.409-1.42-4.445-4.414-1.409 1.42zm5.15 4.705H206v-2h-44.135v2zm44.135 0a7 7 0 017 7h2a9 9 0 00-9-9v2zm7 7v43h2v-43h-2zm0 43a7 7 0 01-7 7v2a9 9 0 009-9h-2zm-7 7H106v2h100v-2zm-100 0a7 7 0 01-7-7h-2a9 9 0 009 9v-2zm-7-7v-43h-2v43h2zm0-43a7 7 0 017-7v-2a9 9 0 00-9 9h2zm7-7h44.135v-2H106v2z" fill="#E4E2E0" mask="url(#a)"/><path d="M117.465 118.874c0 .725-.262 1.308-.786 1.75-.524.438-1.258.7-2.201.786v1.402h-.937v-1.374c-1.112-.023-2.087-.219-2.926-.588v-1.805c.397.196.873.369 1.429.519.56.151 1.06.24 1.497.267v-2.119l-.458-.178c-.902-.355-1.543-.74-1.921-1.155-.374-.419-.56-.937-.56-1.552 0-.661.257-1.203.772-1.627.52-.428 1.242-.688 2.167-.779v-1.046h.937v1.019c1.043.045 1.987.255 2.83.628l-.643 1.6a7.385 7.385 0 00-2.187-.533v2.016c.888.342 1.519.638 1.893.889.378.251.654.527.827.827.178.301.267.652.267 1.053zm-2.058.103a.614.614 0 00-.232-.486c-.155-.132-.388-.269-.697-.41v1.702c.619-.105.929-.373.929-.806zm-2.748-4.15c0 .201.069.367.205.499.142.128.367.26.677.397v-1.607c-.588.087-.882.324-.882.711zm14.691 7.171h-2.42l-2.325-3.78-2.324 3.78h-2.269l3.315-5.154-3.103-4.84h2.338l2.153 3.596 2.112-3.596h2.283l-3.137 4.956 3.377 5.038zm9.338 0h-2.42l-2.325-3.78-2.324 3.78h-2.269l3.315-5.154-3.103-4.84h2.337l2.154 3.596 2.112-3.596h2.283l-3.137 4.956 3.377 5.038zM116.539 101.998l-1.031-2.654h-3.399l-1.019 2.654H110l3.346-8.602h.972l3.34 8.602h-1.119zm-1.353-3.61l-.961-2.595-.411-1.283c-.117.468-.24.896-.369 1.283l-.972 2.596h2.713zm4.927 3.61l-2.437-6.434h1.131l1.365 3.792c.269.761.441 1.33.516 1.705h.046l.041-.17a125.746 125.746 0 01.498-1.535l1.372-3.792h1.125l-2.444 6.434h-1.213zm7.412.117c-.964 0-1.722-.291-2.273-.873-.547-.586-.82-1.39-.82-2.414 0-1.031.256-1.851.767-2.46.512-.614 1.203-.92 2.074-.92.809 0 1.454.261 1.934.784.481.52.721 1.225.721 2.116v.638h-4.407c.02.73.206 1.285.557 1.664.352.379.85.569 1.494.569.344 0 .67-.03.979-.088.308-.063.67-.182 1.084-.358v.926c-.356.153-.69.26-1.002.322a5.683 5.683 0 01-1.108.094zm-.263-5.806c-.504 0-.903.162-1.196.486-.293.324-.466.775-.521 1.353h3.275c-.008-.601-.146-1.058-.416-1.37-.269-.313-.65-.47-1.142-.47zm7.3-.862c.286 0 .538.024.756.07l-.129.973a3.104 3.104 0 00-.697-.082c-.34 0-.656.094-.949.281a1.919 1.919 0 00-.68.78 2.416 2.416 0 00-.246 1.096v3.433h-1.055v-6.434h.868l.117 1.178h.047c.246-.426.537-.748.873-.967a1.968 1.968 0 011.095-.328zm5.813 6.551l-.205-.914h-.047c-.32.402-.641.676-.961.82-.316.141-.717.211-1.201.211-.633 0-1.129-.166-1.488-.498-.36-.332-.539-.801-.539-1.406 0-1.305 1.029-1.988 3.087-2.05l1.09-.042v-.38c0-.489-.105-.848-.316-1.079-.211-.234-.549-.351-1.014-.351-.34 0-.662.05-.967.152a8.03 8.03 0 00-.849.34l-.322-.791a4.759 4.759 0 011.06-.404 4.586 4.586 0 011.137-.147c.777 0 1.355.172 1.734.516.379.343.569.89.569 1.64v4.383h-.768zm-2.174-.732c.59 0 1.053-.159 1.389-.475.34-.32.51-.773.51-1.36v-.58l-.95.042c-.738.027-1.277.144-1.617.351-.336.207-.504.533-.504.979 0 .336.102.593.305.773.207.18.496.27.867.27zm7.389-.012c.648 0 1.119-.174 1.412-.522.297-.351.445-.914.445-1.687v-.252c0-.86-.148-1.484-.445-1.875-.297-.39-.775-.586-1.436-.586-.539 0-.957.215-1.254.645-.292.425-.439 1.035-.439 1.828 0 .797.143 1.404.428 1.822.289.418.719.627 1.289.627zm1.846.685l.035-.791h-.047c-.434.645-1.098.967-1.992.967-.832 0-1.483-.289-1.952-.867-.464-.582-.697-1.4-.697-2.455 0-1.035.235-1.852.703-2.45.473-.597 1.118-.896 1.934-.896.871 0 1.543.325 2.016.973h.064l.141-.856h.838v6.54c0 .921-.235 1.615-.704 2.08-.464.464-1.189.697-2.173.697-.938 0-1.709-.137-2.315-.41v-.973c.625.336 1.416.504 2.373.504.547 0 .979-.16 1.295-.481.32-.32.481-.763.481-1.33v-.252zm5.824.176c-.965 0-1.723-.291-2.274-.873-.547-.586-.82-1.39-.82-2.414 0-1.031.256-1.851.768-2.46.511-.614 1.203-.92 2.074-.92.808 0 1.453.261 1.933.784.481.52.721 1.225.721 2.116v.638h-4.406c.019.73.205 1.285.556 1.664.352.379.85.569 1.495.569.343 0 .67-.03.978-.088a5.81 5.81 0 001.084-.358v.926c-.355.153-.689.26-1.002.322a5.665 5.665 0 01-1.107.094zm-.264-5.806c-.504 0-.902.162-1.195.486-.293.324-.467.775-.522 1.353h3.276c-.008-.601-.147-1.058-.416-1.37-.27-.313-.651-.47-1.143-.47zm11.608 3.914c0 .601-.225 1.068-.674 1.4-.45.328-1.08.492-1.893.492-.848 0-1.521-.135-2.021-.404v-.961c.707.344 1.388.516 2.045.516.531 0 .918-.086 1.16-.258a.808.808 0 00.363-.692c0-.254-.117-.468-.352-.644-.23-.176-.642-.377-1.236-.604-.605-.234-1.031-.433-1.277-.597a1.724 1.724 0 01-.545-.563 1.558 1.558 0 01-.17-.756c0-.527.215-.943.644-1.248.43-.304 1.02-.457 1.77-.457.73 0 1.414.145 2.051.434l-.358.838c-.652-.274-1.24-.41-1.763-.41-.438 0-.77.07-.996.21-.227.137-.34.327-.34.569 0 .234.097.43.293.586.195.152.65.365 1.365.638.535.2.93.385 1.184.557.257.172.447.365.568.58.121.215.182.473.182.774zm5.537 1.775l-.205-.914h-.047c-.321.402-.641.676-.961.82-.317.141-.717.211-1.201.211-.633 0-1.129-.166-1.489-.498-.359-.332-.539-.801-.539-1.406 0-1.305 1.03-1.988 3.088-2.05l1.09-.042v-.38c0-.489-.106-.848-.316-1.079-.211-.234-.549-.351-1.014-.351-.34 0-.662.05-.967.152a8.048 8.048 0 00-.85.34l-.322-.791a4.767 4.767 0 011.061-.404 4.579 4.579 0 011.136-.147c.778 0 1.356.172 1.735.516.379.343.568.89.568 1.64v4.383h-.767zm-2.174-.732c.59 0 1.053-.159 1.388-.475.34-.32.51-.773.51-1.36v-.58l-.949.042c-.738.027-1.277.144-1.617.351-.336.207-.504.533-.504.979 0 .336.101.593.305.773.207.18.496.27.867.27zm5.994.732h-1.055v-9.117h1.055v9.117zm6.012 0l-.205-.914h-.047c-.321.402-.641.676-.961.82-.317.141-.717.211-1.201.211-.633 0-1.129-.166-1.489-.498-.359-.332-.539-.801-.539-1.406 0-1.305 1.03-1.988 3.088-2.05l1.09-.042v-.38c0-.489-.105-.848-.316-1.079-.211-.234-.549-.351-1.014-.351-.34 0-.662.05-.967.152a8.048 8.048 0 00-.85.34l-.322-.791a4.767 4.767 0 011.061-.404 4.58 4.58 0 011.137-.147c.777 0 1.355.172 1.734.516.379.343.568.89.568 1.64v4.383h-.767zm-2.174-.732c.59 0 1.053-.159 1.389-.475.339-.32.509-.773.509-1.36v-.58l-.949.042c-.738.027-1.277.144-1.617.351-.336.207-.504.533-.504.979 0 .336.102.593.305.773.207.18.496.27.867.27zm7.939-5.819c.285 0 .537.024.756.07l-.129.973a3.104 3.104 0 00-.697-.082c-.34 0-.656.094-.949.281a1.919 1.919 0 00-.68.78 2.416 2.416 0 00-.246 1.096v3.433h-1.055v-6.434h.867l.118 1.178h.047c.246-.426.537-.748.873-.967a1.968 1.968 0 011.095-.328zm.95.117h1.13l1.389 3.663c.293.796.473 1.38.539 1.752h.047c.035-.145.115-.415.24-.809.125-.398.231-.717.317-.955l1.306-3.65h1.137l-2.772 7.324c-.269.711-.589 1.22-.96 1.529-.372.309-.831.463-1.377.463-.293 0-.584-.033-.873-.1v-.838c.195.047.429.071.703.071.336 0 .621-.094.855-.282.235-.183.426-.468.574-.855l.334-.856-2.589-6.457zM145.066 121.115c-.863 0-1.527-.31-1.992-.931h-.07l.023.24c.032.305.047.576.047.814v2.643h-1.054v-9.317h.867l.14.879h.047c.25-.351.539-.605.867-.761a2.607 2.607 0 011.137-.235c.836 0 1.484.291 1.945.873.465.578.698 1.395.698 2.45 0 1.05-.233 1.871-.698 2.46-.464.59-1.117.885-1.957.885zm-.175-5.783c-.637 0-1.098.18-1.383.539-.281.359-.426.924-.434 1.693v.206c0 .871.145 1.501.434 1.892.289.387.758.58 1.406.58.539 0 .959-.219 1.26-.656.305-.438.457-1.047.457-1.828 0-.785-.152-1.385-.457-1.799-.301-.418-.729-.627-1.283-.627zm7.248 5.783c-.965 0-1.723-.291-2.274-.873-.547-.586-.82-1.39-.82-2.414 0-1.031.256-1.851.767-2.461.512-.613 1.204-.92 2.075-.92.808 0 1.453.262 1.933.785.481.52.721 1.225.721 2.116v.638h-4.406c.019.731.205 1.285.556 1.664.352.379.85.569 1.495.569.343 0 .669-.03.978-.088a5.81 5.81 0 001.084-.358v.926c-.355.153-.689.26-1.002.322a5.672 5.672 0 01-1.107.094zm-.264-5.806c-.504 0-.902.162-1.195.486-.293.324-.467.775-.522 1.353h3.276c-.008-.601-.147-1.058-.416-1.371-.27-.312-.651-.468-1.143-.468zm7.301-.862c.285 0 .537.024.756.071l-.129.972a3.16 3.16 0 00-.698-.082c-.339 0-.656.094-.949.281a1.923 1.923 0 00-.679.78 2.402 2.402 0 00-.247 1.095v3.434h-1.054v-6.434h.867l.117 1.178h.047c.246-.426.537-.748.873-.967a1.975 1.975 0 011.096-.328zm13.26 6.551v-4.143c0-1.015-.436-1.523-1.307-1.523-.598 0-1.037.174-1.318.522-.282.347-.422.878-.422 1.593v3.551h-1.049v-4.143c0-.507-.108-.888-.322-1.142-.211-.254-.543-.381-.997-.381-.593 0-1.029.182-1.306.545-.274.363-.41.959-.41 1.787v3.334h-1.055v-6.434h.85l.158.879h.058c.184-.312.442-.556.774-.732a2.387 2.387 0 011.125-.264c1.008 0 1.664.36 1.969 1.078h.058a2.12 2.12 0 01.844-.796 2.59 2.59 0 011.219-.282c.726 0 1.269.188 1.629.563.363.375.545.974.545 1.799v4.189h-1.043zm8.63-3.228c0 1.05-.265 1.871-.796 2.46-.532.59-1.266.885-2.204.885-.582 0-1.097-.135-1.546-.404a2.686 2.686 0 01-1.038-1.172c-.242-.508-.363-1.098-.363-1.769 0-1.047.262-1.862.785-2.444.524-.586 1.258-.879 2.203-.879.907 0 1.625.299 2.157.897.535.594.802 1.402.802 2.426zm-4.857 0c0 .808.158 1.423.475 1.845.32.418.791.627 1.412.627.613 0 1.08-.209 1.4-.627.32-.422.481-1.037.481-1.845 0-.809-.163-1.416-.487-1.823-.32-.41-.791-.615-1.412-.615-1.246 0-1.869.813-1.869 2.438zm10.916 3.228v-4.113c0-.524-.117-.912-.352-1.166-.23-.258-.593-.387-1.089-.387-.661 0-1.141.184-1.442.551-.297.363-.445.957-.445 1.781v3.334h-1.055v-6.434h.85l.158.879h.059c.199-.316.478-.56.837-.732a2.67 2.67 0 011.19-.264c.789 0 1.375.192 1.758.574.383.383.574.979.574 1.788v4.189h-1.043zm5.186-.744c.136 0 .296-.014.48-.041.184-.027.322-.059.416-.094v.809c-.098.043-.25.084-.457.123-.203.043-.41.064-.621.064-1.258 0-1.887-.662-1.887-1.986v-3.744h-.908v-.504l.92-.422.422-1.371h.627v1.476h1.857v.821h-1.857v3.715c0 .371.088.656.263.855.18.199.428.299.745.299zm6.568.744v-4.113c0-.524-.117-.912-.352-1.166-.23-.258-.593-.387-1.089-.387-.653 0-1.131.182-1.436.545-.301.363-.451.963-.451 1.799v3.322h-1.055v-9.117h1.055v2.672c0 .351-.02.652-.059.902h.07c.192-.312.463-.557.815-.732a2.621 2.621 0 011.189-.264c.782 0 1.37.187 1.764.562.395.372.592.967.592 1.788v4.189h-1.043z" fill="#2D2D2D"/><rect x="206" width="47" height="32" rx="4" fill="#595959"/><rect width="9.987" height="9.987" rx="2" transform="rotate(44.927 85.606 288.87)" fill="#595959"/><path d="M218.992 15.281l2.383-4.703h2.609l-3.789 6.977V22h-2.406v-4.367L214 10.578h2.625l2.367 4.703zm7.75 2.336c0 .865.141 1.518.422 1.961.287.443.75.664 1.391.664.635 0 1.091-.219 1.367-.656.281-.443.422-1.099.422-1.969 0-.864-.141-1.513-.422-1.945-.281-.432-.742-.649-1.383-.649-.635 0-1.094.217-1.375.649-.281.427-.422 1.075-.422 1.945zm6.039 0c0 1.422-.375 2.534-1.125 3.336s-1.794 1.203-3.133 1.203c-.838 0-1.578-.182-2.218-.547a3.69 3.69 0 01-1.477-1.586c-.344-.687-.516-1.49-.516-2.406 0-1.427.373-2.536 1.118-3.328.744-.792 1.791-1.187 3.14-1.187.839 0 1.578.182 2.219.546a3.65 3.65 0 011.477 1.57c.343.683.515 1.483.515 2.4zM240.938 22l-.321-1.117h-.125a2.536 2.536 0 01-1.086.945c-.468.219-1.002.328-1.601.328-1.026 0-1.8-.273-2.321-.82-.52-.552-.781-1.344-.781-2.375v-5.695h2.383v5.101c0 .63.112 1.104.336 1.422.224.313.581.469 1.07.469.667 0 1.149-.221 1.446-.664.296-.448.445-1.188.445-2.219v-4.11h2.383V22h-1.828z" fill="#fff"/><g filter="url(#filter0_d)"><circle cx="229" cy="56" r="8" fill="#fff"/></g><circle cx="229" cy="56" r="4" fill="#237EA3"/><circle cx="10" cy="56" r="2" fill="#fff"/><circle cx="156" cy="56" r="2" fill="#fff"/><circle cx="301" cy="56" r="2" fill="#fff"/><defs><filter id="filter0_d" x="219" y="47" width="20" height="20" filterUnits="userSpaceOnUse" color-interpolation-filters="sRGB"><feFlood flood-opacity="0" result="BackgroundImageFix"/><feColorMatrix in="SourceAlpha" values="0 0 0 0 0 0 0 0 0 0 0 0 0 0 0 0 0 0 127 0"/><feOffset dy="1"/><feGaussianBlur stdDeviation="1"/><feColorMatrix values="0 0 0 0 0 0 0 0 0 0 0 0 0 0 0 0 0 0 0.15 0"/><feBlend in2="BackgroundImageFix" result="effect1_dropShadow"/><feBlend in="SourceGraphic" in2="effect1_dropShadow" result="shape"/></filter></defs></svg>